<?xml version="1.0" encoding="UTF-8"?>
<svg xmlns="http://www.w3.org/2000/svg" version="1.1" viewBox="0 0 792 288">
  <defs>
    <style>
      .cls-1 {
        font-family: GoodTimesRg-Regular, 'Good Times';
        font-size: 108.71px;
      }

      .cls-1, .cls-2 {
        fill: #091912;
      }

      .cls-3 {
        stroke-linecap: round;
      }

      .cls-3, .cls-4, .cls-5 {
        stroke-width: 4px;
      }

      .cls-3, .cls-4, .cls-5, .cls-6 {
        stroke-miterlimit: 10;
      }

      .cls-3, .cls-4, .cls-6 {
        fill: none;
        stroke: #091912;
      }

      .cls-7, .cls-5 {
        fill: #fff;
      }

      .cls-5 {
        stroke: #33835b;
      }

      .cls-6 {
        stroke-width: 13px;
      }
    </style>
  </defs>
  <!-- Generator: Adobe Illustrator 28.7.1, SVG Export Plug-In . SVG Version: 1.2.0 Build 142)  -->
  <g>
    <g id="Layer_1">
      <line class="cls-6" x1="60.41" y1="60.04" x2="60.41" y2="201.36"/>
      <line class="cls-6" x1="53.34" y1="67.1" x2="180.53" y2="67.1"/>
      <line class="cls-6" x1="53.34" y1="95.37" x2="180.53" y2="95.37"/>
      <line class="cls-6" x1="53.34" y1="123.63" x2="180.53" y2="123.63"/>
      <line class="cls-6" x1="53.34" y1="151.9" x2="180.53" y2="151.9"/>
      <line class="cls-6" x1="53.34" y1="180.16" x2="180.53" y2="180.16"/>
      <line class="cls-6" x1="88.67" y1="60.04" x2="88.67" y2="201.36"/>
      <line class="cls-6" x1="145.2" y1="60.04" x2="145.2" y2="201.36"/>
      <line class="cls-6" x1="173.47" y1="60.04" x2="173.47" y2="201.36"/>
      <line class="cls-6" x1="116.94" y1="60.04" x2="116.94" y2="201.36"/>
      <circle class="cls-4" cx="199.69" cy="68.6" r="8.83"/>
      <line class="cls-3" x1="199.69" y1="72.1" x2="199.69" y2="89.77"/>
      <circle class="cls-4" cx="199.69" cy="93.68" r="8.83"/>
      <circle class="cls-4" cx="199.69" cy="167.75" r="8.83"/>
      <line class="cls-3" x1="199.69" y1="171.25" x2="199.69" y2="188.92"/>
      <circle class="cls-4" cx="199.69" cy="192.84" r="8.83"/>
      <line class="cls-3" x1="199.69" y1="97.19" x2="199.69" y2="114.86"/>
      <circle class="cls-4" cx="199.69" cy="118.77" r="8.83"/>
      <line class="cls-3" x1="199.69" y1="122.28" x2="199.69" y2="139.94"/>
      <circle class="cls-4" cx="199.69" cy="143.86" r="8.83"/>
      <line class="cls-3" x1="199.69" y1="147.36" x2="199.69" y2="165.03"/>
      <circle class="cls-4" cx="199.69" cy="217.42" r="8.83"/>
      <line class="cls-3" x1="199.69" y1="197.03" x2="199.69" y2="214.7"/>
      <circle class="cls-4" cx="33.09" cy="66.42" r="8.83"/>
      <line class="cls-3" x1="33.09" y1="69.93" x2="33.09" y2="87.59"/>
      <circle class="cls-4" cx="33.09" cy="91.51" r="8.83"/>
      <circle class="cls-4" cx="33.09" cy="165.57" r="8.83"/>
      <line class="cls-3" x1="33.09" y1="169.08" x2="33.09" y2="186.75"/>
      <circle class="cls-4" cx="33.09" cy="190.66" r="8.83"/>
      <line class="cls-3" x1="33.09" y1="95.02" x2="33.09" y2="112.68"/>
      <circle class="cls-4" cx="33.09" cy="116.6" r="8.83"/>
      <line class="cls-3" x1="33.09" y1="120.1" x2="33.09" y2="137.77"/>
      <circle class="cls-4" cx="33.09" cy="141.68" r="8.83"/>
      <line class="cls-3" x1="33.09" y1="145.19" x2="33.09" y2="162.86"/>
      <circle class="cls-4" cx="33.09" cy="215.24" r="8.83"/>
      <line class="cls-3" x1="33.09" y1="194.86" x2="33.09" y2="212.52"/>
      <polygon class="cls-2" points="88.67 230.96 74.2 201.36 103.14 201.36 88.67 230.96"/>
      <polygon class="cls-2" points="60.41 230.96 45.94 201.36 74.87 201.36 60.41 230.96"/>
      <polygon class="cls-2" points="116.94 230.96 102.47 201.36 131.4 201.36 116.94 230.96"/>
      <polygon class="cls-2" points="145.2 230.96 130.73 201.36 159.67 201.36 145.2 230.96"/>
      <polygon class="cls-2" points="172.38 230.96 157.91 201.36 186.85 201.36 172.38 230.96"/>
      <circle class="cls-5" cx="60.41" cy="66.81" r="1.64"/>
      <circle class="cls-7" cx="60.41" cy="67.1" r="3.01"/>
      <circle class="cls-7" cx="88.67" cy="67.1" r="3.01"/>
      <circle class="cls-7" cx="116.69" cy="67.1" r="3.01"/>
      <circle class="cls-7" cx="144.95" cy="67.1" r="3.01"/>
      <circle class="cls-7" cx="172.81" cy="67.1" r="3.01"/>
      <circle class="cls-7" cx="60.41" cy="93.93" r="3.01"/>
      <circle class="cls-7" cx="88.67" cy="93.93" r="3.01"/>
      <circle class="cls-7" cx="116.69" cy="93.93" r="3.01"/>
      <circle class="cls-7" cx="144.95" cy="93.93" r="3.01"/>
      <circle class="cls-7" cx="172.81" cy="93.93" r="3.01"/>
      <circle class="cls-7" cx="60.41" cy="123.63" r="3.01"/>
      <circle class="cls-7" cx="88.67" cy="123.63" r="3.01"/>
      <circle class="cls-7" cx="116.69" cy="123.63" r="3.01"/>
      <circle class="cls-7" cx="144.95" cy="123.63" r="3.01"/>
      <circle class="cls-7" cx="172.81" cy="123.63" r="3.01"/>
      <circle class="cls-7" cx="60.41" cy="151.9" r="3.01"/>
      <circle class="cls-7" cx="88.67" cy="151.9" r="3.01"/>
      <circle class="cls-7" cx="116.69" cy="151.9" r="3.01"/>
      <circle class="cls-7" cx="144.95" cy="151.9" r="3.01"/>
      <circle class="cls-7" cx="172.81" cy="151.9" r="3.01"/>
      <circle class="cls-7" cx="60.41" cy="180.16" r="3.01"/>
      <circle class="cls-7" cx="88.67" cy="180.16" r="3.01"/>
      <circle class="cls-7" cx="116.69" cy="180.16" r="3.01"/>
      <circle class="cls-7" cx="144.95" cy="180.16" r="3.01"/>
      <circle class="cls-7" cx="172.81" cy="180.16" r="3.01"/>
      <line class="cls-3" x1="43.72" y1="66.11" x2="52.81" y2="66.11"/>
      <line class="cls-3" x1="180.13" y1="67.1" x2="189.22" y2="67.1"/>
      <text class="cls-1" transform="translate(230.62 180.16)"><tspan x="0" y="0">CRYPTA</tspan></text>
    </g>
  </g>
</svg>